<svg height="60pt" viewBox="0 1 511 511.99999" width="60pt" xmlns="http://www.w3.org/2000/svg"><path d="m308.921875 492c-2.640625 0-5.210937 1.058594-7.070313 2.929688-1.871093 1.851562-2.929687 4.429687-2.929687 7.070312 0 2.628906 1.058594 5.210938 2.929687 7.070312 1.859376 1.859376 4.429688 2.929688 7.070313 2.929688 2.628906 0 5.199219-1.070312 7.070313-2.929688 1.859374-1.859374 2.929687-4.441406 2.929687-7.070312 0-2.640625-1.070313-5.210938-2.929687-7.070312-1.859376-1.871094-4.441407-2.929688-7.070313-2.929688zm0 0"/><path d="m299.351562 253.980469c0-5.523438-4.476562-10-10-10h-8.867187c-1.449219-4.53125-3.273437-8.925781-5.457031-13.15625l6.273437-6.273438c3.90625-3.902343 3.90625-10.234375 0-14.140625l-22.976562-22.980468c-3.90625-3.90625-10.238281-3.90625-14.144531 0l-6.273438 6.273437c-4.230469-2.183594-8.625-4.007813-13.15625-5.453125v-8.867188c0-5.523437-4.476562-10-10-10h-32.5c-5.523438 0-10 4.476563-10 10v8.835938c-4.542969 1.445312-8.949219 3.265625-13.1875 5.453125l-6.242188-6.242187c-3.902343-3.90625-10.234374-3.90625-14.140624 0l-22.980469 22.980468c-1.875 1.875-2.929688 4.417969-2.929688 7.070313 0 2.652343 1.054688 5.195312 2.929688 7.070312l6.210937 6.210938c-2.199218 4.25-4.03125 8.664062-5.488281 13.21875h-8.769531c-5.523438 0-10 4.476562-10 10v32.5c0 5.519531 4.476562 10 10 10h8.742187c1.453125 4.5625 3.285157 8.988281 5.484375 13.25l-6.179687 6.179687c-1.875 1.875-2.929688 4.417969-2.929688 7.070313 0 2.652343 1.054688 5.195312 2.929688 7.070312l22.980469 22.980469c3.902343 3.902344 10.234374 3.902344 14.140624 0l6.179688-6.179688c4.261719 2.199219 8.6875 4.03125 13.25 5.484376v8.742187c0 5.523437 4.476562 10 10 10h32.5c5.523438 0 10-4.476563 10-10v-8.773437c4.554688-1.453126 8.96875-3.289063 13.21875-5.484376l6.210938 6.210938c3.90625 3.902344 10.238281 3.902344 14.144531 0l22.976562-22.980469c1.875-1.875 2.929688-4.417969 2.929688-7.070312 0-2.652344-1.054688-5.195313-2.929688-7.070313l-6.238281-6.242187c2.183594-4.238281 4.003906-8.644531 5.449219-13.1875h8.839843c5.519532 0 10-4.476563 10-10zm-20 22.5h-6.507812c-4.707031 0-8.773438 3.28125-9.773438 7.882812-1.664062 7.683594-4.664062 14.9375-8.914062 21.5625-2.535156 3.957031-1.976562 9.144531 1.347656 12.46875l4.585938 4.585938-8.839844 8.839843-4.566406-4.566406c-3.328125-3.328125-8.527344-3.886718-12.484375-1.335937-6.625 4.269531-13.886719 7.28125-21.578125 8.960937-4.59375 1-7.871094 5.066406-7.871094 9.769532v6.433593h-12.496094v-6.410156c0-4.707031-3.285156-8.777344-7.882812-9.773437-7.703125-1.671876-14.976563-4.679688-21.613282-8.945313-3.957031-2.546875-9.152343-1.984375-12.476562 1.339844l-4.53125 4.527343-8.835938-8.835937 4.527344-4.53125c3.328125-3.324219 3.886719-8.519531 1.34375-12.476563-4.265625-6.640624-7.277344-13.910156-8.949218-21.613281-.996094-4.601562-5.0625-7.878906-9.769532-7.878906h-6.414062v-12.503906h6.433594c4.699218 0 8.765624-3.273438 9.769531-7.867188 1.675781-7.691406 4.691406-14.953125 8.960937-21.582031 2.546875-3.957031 1.992188-9.15625-1.335937-12.484375l-4.566407-4.566406 8.835938-8.839844 4.585938 4.585937c3.324218 3.324219 8.515624 3.886719 12.46875 1.347657 6.625-4.25 13.878906-7.246094 21.566406-8.914063 4.597656-.996094 7.878906-5.066406 7.878906-9.773437v-6.503907h12.5v6.523438c0 4.703125 3.273438 8.769531 7.871094 9.773438 7.671875 1.671874 14.917968 4.675781 21.527344 8.925781 3.960937 2.542969 9.152343 1.988281 12.480468-1.339844l4.621094-4.621094 8.839844 8.835938-4.625 4.625c-3.324219 3.324219-3.882813 8.519531-1.339844 12.476562 4.25 6.613281 7.253906 13.859375 8.929688 21.53125 1 4.59375 5.066406 7.871094 9.769531 7.871094h6.527343zm0 0"/><path d="m198.453125 228.625c-22.96875 0-41.652344 18.683594-41.652344 41.652344s18.683594 41.65625 41.652344 41.65625 41.65625-18.6875 41.65625-41.65625-18.6875-41.652344-41.65625-41.652344zm0 63.308594c-11.9375 0-21.652344-9.714844-21.652344-21.65625 0-11.9375 9.714844-21.652344 21.652344-21.652344 11.941406 0 21.65625 9.710938 21.65625 21.652344s-9.714844 21.65625-21.65625 21.65625zm0 0"/><path d="m502.335938 93.800781h-13.042969c-2.039063-6.796875-4.757813-13.347656-8.125-19.59375l9.230469-9.230469c1.875-1.875 2.929687-4.417968 2.929687-7.070312s-1.054687-5.195312-2.929687-7.070312l-28.894532-28.894532c-3.90625-3.90625-10.238281-3.90625-14.140625 0l-9.230469 9.230469c-6.25-3.371094-12.800781-6.085937-19.59375-8.125v-13.046875c0-5.523438-4.480468-10-10-10h-40.863281c-5.523437 0-10 4.476562-10 10v13.011719c-6.8125 2.035156-13.375 4.75-19.636719 8.117187l-9.1875-9.1875c-3.90625-3.90625-10.238281-3.90625-14.144531 0l-28.894531 28.894532c-3.90625 3.90625-3.90625 10.238281 0 14.140624l9.152344 9.15625c-3.386719 6.269532-6.117188 12.847657-8.164063 19.667969h-12.929687c-5.523438 0-10 4.476563-10 10v3.3125c-21.480469-9.070312-44.847656-13.625-68.4375-13.230469-44.261719.714844-85.761719 18.496094-116.851563 50.0625-30.773437 31.242188-47.875 72.488282-48.261719 116.292969l-29.390624 96.9375c-.9179692 3.027344-.347657 6.3125 1.539062 8.855469s4.863281 4.042969 8.03125 4.042969h37.25v14.71875c0 46.066406 37.476562 83.546875 83.546875 83.546875h17.230469c7.425781 0 13.46875 6.039062 13.46875 13.464844v20.191406c0 5.523437 4.476562 10 10 10 5.523437 0 10-4.476563 10-10v-20.191406c0-18.453126-15.015625-33.464844-33.46875-33.464844h-17.230469c-35.039063 0-63.546875-28.507813-63.546875-63.546875v-24.71875c0-5.519531-4.476562-10-10-10h-33.769531l25.90625-85.433594c.285156-.941406.429687-1.917969.429687-2.902344 0-80.234375 65.242188-146.5625 145.4375-147.859375 23.695313-.375 47.121094 4.875 68.117188 15.226563v15.558593c0 5.523438 4.476562 10 10 10h12.890625c2.046875 6.835938 4.773437 13.425782 8.160156 19.710938l-9.109375 9.113281c-3.90625 3.90625-3.90625 10.238281 0 14.140625l28.894531 28.894532c3.90625 3.90625 10.238281 3.90625 14.144531 0l9.109376-9.109376c.554687.296876 1.109374.582032 1.667968.871094 4.011719 13.179688 6.183594 26.910156 6.421875 40.875.617188 36.40625-12.097656 78.792969-32.390625 107.980469-9.644531 13.875-14.742187 30.160156-14.742187 47.101563v50.753906c0 5.523437 4.476562 10 10 10 5.523437 0 10-4.476563 10-10v-50.753906c0-12.839844 3.859375-25.175782 11.164062-35.683594 22.878907-32.90625 36.660157-78.789063 35.964844-119.734375-.058594-3.546875-.234375-7.078125-.511719-10.59375.6875.152343 1.402344.234375 2.140625.234375h40.863281c5.519532 0 10-4.476563 10-10v-12.925782c6.820313-2.046874 13.398438-4.777343 19.667969-8.167968l9.15625 9.15625c3.90625 3.902344 10.238281 3.902344 14.140625 0l28.894532-28.894532c3.90625-3.90625 3.90625-10.238281 0-14.144531l-9.1875-9.1875c3.367187-6.261719 6.082031-12.828125 8.117187-19.636719h13.007813c5.523437 0 10.003906-4.476562 10.003906-10v-40.863281c0-5.523437-4.480469-10-10.003906-10zm-10 40.863281h-10.753907c-4.703125 0-8.773437 3.28125-9.769531 7.882813-2.164062 9.964844-6.050781 19.371094-11.558594 27.957031-2.539062 3.957032-1.976562 9.144532 1.347656 12.46875l7.585938 7.585938-14.753906 14.753906-7.5625-7.5625c-3.328125-3.328125-8.527344-3.886719-12.484375-1.335938-8.59375 5.53125-18.007813 9.441407-27.980469 11.617188-4.59375 1.003906-7.867188 5.070312-7.867188 9.769531v10.664063h-20.863281v-10.636719c0-4.707031-3.285156-8.777344-7.882812-9.773437-9.988281-2.167969-19.414063-6.070313-28.019531-11.597657-3.957032-2.542969-9.152344-1.984375-12.480469 1.339844l-7.515625 7.515625-14.75-14.753906 7.515625-7.515625c3.324219-3.324219 3.882812-8.519531 1.339843-12.476563-5.53125-8.605468-9.433593-18.035156-11.597656-28.023437-1-4.597657-5.066406-7.878907-9.773437-7.878907h-10.636719v-20.863281h10.660156c4.703125 0 8.769532-3.273437 9.773438-7.871093 2.175781-9.96875 6.082031-19.382813 11.617187-27.976563 2.546875-3.957031 1.992188-9.15625-1.335937-12.484375l-7.5625-7.5625 14.75-14.753906 7.585937 7.585937c3.324219 3.324219 8.515625 3.882813 12.472657 1.347657 8.585937-5.507813 17.992187-9.398438 27.957031-11.558594 4.601562-.996094 7.882812-5.066406 7.882812-9.773438v-10.753906h20.863281v10.78125c0 4.699219 3.273438 8.769531 7.867188 9.769531 9.949219 2.167969 19.339844 6.066407 27.917969 11.574219 3.957031 2.546875 9.148437 1.988281 12.476562-1.339844l7.632813-7.632812 14.753906 14.753906-7.636719 7.628906c-3.324219 3.328125-3.882812 8.523438-1.339843 12.480469 5.511718 8.574219 9.40625 17.964844 11.578124 27.914063 1 4.59375 5.066407 7.871093 9.769532 7.871093h10.777344zm0 0"/><path d="m388.046875 74.492188c-27.460937 0-49.800781 22.339843-49.800781 49.800781 0 27.460937 22.339844 49.800781 49.800781 49.800781s49.800781-22.339844 49.800781-49.800781c0-27.460938-22.339844-49.800781-49.800781-49.800781zm0 79.601562c-16.433594 0-29.800781-13.371094-29.800781-29.804688 0-16.429687 13.367187-29.800781 29.800781-29.800781s29.800781 13.371094 29.800781 29.800781c0 16.433594-13.367187 29.804688-29.800781 29.804688zm0 0"/></svg>
